<?xml version="1.0" encoding="UTF-8"?>
<svg version="1.1" viewBox="0 0 2048 904" width="1280" height="1280" xmlns="http://www.w3.org/2000/svg">
<path transform="translate(1604,85)" d="m0 0h439l1 1v129h-68v19h-25v-19l-33 1-1 18h-25v-19l-33 1-1 18h-24l-1-18-33-1v19h-25l-1-18-84-1 11 21 12 16 11 12 11 10 15 10 14 7 16 5 7 1 231 1v119h-262v87h292v129l-1 1h-443z" fill="#054F3B"/>
<path transform="translate(691,1)" d="m0 0h3l10 13 11 14 14 18 22 28 14 18 5 6 3-4 16-34 14-30 13-28 10 3 55 20-2 11-24 88-19 70 1 6 13 23 30 54 28 50 15 27 14 25 15 27 14 25 15 27 13 23 30 54 14 25 15 27 13 23 15 27 2 5h-150v-5h-3v5l-8-6-10-9-22-18-14 1-87 14-12 2h-5v16h-1l-2-17-5-12-8-16-11-20-16-27-11-21-18 40-8 17-12 18-8 10-7 7 9-5 1 7 5 2 13 3h7l4-4 10-19 5-17 2-20 2-3 3 26 5 22 5 20v5h9l13 3v1h-286l8-16 25-45 13-24 13-23 14-26 25-45 13-24 13-23 13-24 13-23 15-28 13-23 14-26 13-23 14-26 13-23 12-22-1-5-14-24-16-28-15-26-16-28-14-24-8-14 1-4 18-14 19-14 18-14zm-28 621m-2 1-5 3-5-1 2 8h2l7-8 1-2z" fill="#054F3B"/>
<path transform="translate(1123,69)" d="m0 0h164l29 2 33 5 32 8 28 10 25 12 18 11 14 10 11 9 12 11 10 10 9 11 10 13 12 20 9 17 10 25 7 24 5 23 3 20 2 24v41l-3 32-4 23-7 27-8 22-10 22-13 22-12 16-11 13-20 20-17 13-15 10-18 10-19 9-25 9-21 6-31 6-26 3-16 1h-186l-1-569zm95 114v342h65l22-2 22-4 20-6 17-7 15-8 14-10 12-11 8-8 11-15 8-14 8-18 6-21 3-17 1-10v-39l-3-22-5-20-6-16-8-16-10-15-11-13-7-7-14-11-16-10-17-8-21-7-24-5-18-2z" fill="#054F3B"/>
<path transform="translate(0,75)" d="m0 0h115l1 244 10-16 18-27 10-16 17-26 13-20 15-23 52-80 15-23 8-12 1-1h132l-5 9-10 15-19 29-145 221-2 3 1 5 16 23 14 20 16 23 28 40 16 23 28 40 16 23 28 40 16 23 14 20 8 11v2h-139l-8-11-48-69-11-16-14-20-32-46-11-16-14-20-16-23-11-16-7-10-1 246-1 1h-113l-1-1z" fill="#054F3B"/>
<path transform="translate(795,327)" d="m0 0h4l3 6v16l3 8 1 7 5 7-2 9 8 7 2 5-3 2-6-1-2-1 5 10 8 6 2 3v4h-12l6 14 11 8 3 4-4 2h-6l2 5 4 2h4l-1-1v-5l6-3v-8l2-3-4-2 4-18 3-7 1-8 3-6v-11h4l3 12 5 24 3 2 1 4h-6l2 5 7 6v5h-7l5 10 7 3 3-10 3-3-2-5-1-5 9-9h2l-2-10v-6l6-7v-10l-1-10 3-3 4 2 3 5-1 9-1 8 4 2v12l6 5v6h-2l2 7 6 5 2 4v3h-10l3 7 10 7 2 7-4 2-7-1 1 6 4 8 7 6 8 3-4 5h-8l3 6 11 5v5l-8 5-5 7 1 3 11 7 4 8v3l-9 1-3 6 2 4 8 3 6 3 3 4v5l-5 1 3 4v2l-7 1 7 4 10 2v8l-3 2h-3l3 14-8 2 2 7 5 2 5 4 2 5v6h-18l-7-3-8-7-10-14-13-21-14-24-8-16-12-25-12 1-23 4-9 1h-41l-12-3-9-6-3-3-3 4-1 4h-14l-22-3-1 6-12 25-7 14h-12v4h5l3-1 1 3-30 50-5 7 1 8h2l2-4 7-7 9-6h1l1 7 5 2 13 3h7l4-4 10-19 5-17 2-20 2-3 3 26 5 22 5 20v5h9l13 3v1h-146l10-8 2-1 1-7h-8l-23-4-2-2 2-5 2-1 24-2-4-5-16-2-1-3 3-3 15-2 1-2-5-2-10-5-1-2 12 1-9-8v-3h15v-7l-12-2 2-3 7-2 1-2-6-1-5-4-1-3h20l-6-4-12-3 2-4 5-4 12-5 5-2v-4l-18-2 1-7 6-8 7-4-1-2-4-2 2-6 5-4 7-1-4-6v-5l4-5 1-4h-7v-6l4-8-1-12 8-7v-14l7-9-2-12v-10l6 2 2 2 1 19 2 6 2 9 5 6-2 10 9 8 1 4h-11l4 9 8 5 3 5v4h-12l4 16 5 6 9 4-3-5-4-5 7-6 14-5 3-4-5-4-13-1 2-8 6-7 6-2v-4l-4-1 1-7 5-3 6-1-3-7v-5l5-6-8-3 3-10 3-3-2-7 1-6 7-6h2l-2-11 1-4 6-9-2-12v-7l5-1 4 3v12l-1 10 4 2 1 10 5 7-3 5 1 3 7 6 3 5v2l-7 1h-3l3 7 9 7 3 5v2l-2 1h-8l-2-1 3 10 6 8 6 4 4 2-2 4h-9l4 6 4 3 6 1 12-3 9-4v-5l-17-2 1-6 4-6 9-7 1-2-5-1-1-3 4-6 10-3-4-6 1-6 3-4 1-3-7-1 1-9 4-4v-3l-2-1 1-9 7-6v-15l2-4 5-4-2-12v-8z" fill="#FE8F25"/>
<path transform="translate(926,695)" d="m0 0h81l19 2 17 5 16 8 11 7 13 12 9 12 8 16 5 15 2 11v27l-4 18-6 15-8 14-8 10-10 10-13 9-16 8-16 5-13 2h-91l3-182zm33 32-2 114v29h55l17-4 13-7 10-8 9-11 7-14 4-16v-27l-4-15-7-13-9-10-8-7-16-8-13-3z" fill="#06503C"/>
<path transform="translate(391,693)" d="m0 0h28l18 4 15 6 15 9 13 12 10 12 9 16 5 13 3 13 1 9v19l-3 18-5 15-9 17-10 13-8 8-13 10-14 8-17 6-17 3h-20l-17-3-15-5-15-8-10-8-10-9-10-13-9-17-5-16-2-11v-27l4-20 6-15 9-15 12-14 10-9 14-9 13-6 17-5zm4 32-17 4-15 8-10 9-7 8-8 15-4 15-1 9v14l3 17 5 12 7 11 11 11 11 7 14 5 5 1h26l13-3 14-7 12-11 6-7 7-12 5-16 1-6v-25l-4-17-7-13-10-12-11-8-13-6-14-3z" fill="#064F3B"/>
<path transform="translate(1459,693)" d="m0 0h28l18 4 15 6 15 9 13 12 10 12 8 14 5 12 4 16 1 8v20l-3 19-7 19-9 15-9 11-8 8-15 11-16 8-16 5-13 2h-20l-17-3-15-5-15-8-10-8-9-8-10-13-8-14-6-16-3-16v-26l4-20 7-17 9-14 12-14 13-11 16-9 16-6zm5 32-15 3-16 8-8 6-9 9-8 14-4 10-3 19v12l2 14 4 12 6 11 9 10 9 8 17 8 9 2h26l13-3 14-7 11-9 9-12 7-14 4-16v-27l-4-16-7-13-11-13-10-7-10-5-11-3-6-1z" fill="#054F3B"/>
<path transform="translate(1223,693)" d="m0 0h29l17 4 13 5 13 7 10 8 12 12 10 14 7 15 4 13 2 11v29l-4 19-7 16-6 11-9 11-12 12-13 9-16 8-16 5-13 2h-19l-18-3-19-7-13-8-10-8-10-10-10-14-8-17-5-19-1-10v-16l3-20 7-19 8-14 9-11 12-12 13-9 16-8 13-4zm5 32-14 3-12 5-13 9-7 7-7 11-5 11-4 16v25l4 17 8 15 11 12 10 7 11 5 11 3h27l15-4 13-7 13-12 9-14 5-13 3-17v-16l-3-16-5-12-9-13-8-8-11-7-13-5-11-2z" fill="#054F3B"/>
<path transform="translate(1613,695)" d="m0 0h79l15 2 15 5 13 9 9 10 6 12 3 11v20l-3 12-7 13-9 10-14 9-16 5-9 2 9 11 52 64 8 10v1h-43l-13-16-10-13-11-14-13-16-10-13-11-14-9-1v38l-1 49h-34v-54l2-117 1-34zm33 30-1 11v50h49l11-4 7-5 5-8 2-7v-14l-3-9-8-9-9-4-5-1z" fill="#06503C"/>
<path transform="translate(543,695)" d="m0 0h32l1 1-2 130 2 13 5 12 9 10 10 6 9 3h23l12-4 9-7 7-8 6-13 2-10 2-106 1-26 1-1h32l1 1-2 124-2 21-5 15-8 14-9 11-14 11-14 7-14 4-8 1h-19l-15-3-13-5-11-7-10-9-8-9-8-15-4-13-1-6v-55l1-59 1-27z" fill="#07503C"/>
<path transform="translate(719,528)" d="m0 0h12l42 5h44l19-3 9-2h8l5 12 13 25 16 27 11 16 11 14-1 2-15-13-3-2-14 1-87 14-12 2h-5v16h-1l-2-17-5-12-8-16-11-20-16-27-10-19z" fill="#FE8F25"/>
<path transform="translate(729,695)" d="m0 0h167v32h-67v27l-2 117-1 30h-34l2-128 1-46h-66l-1-1z" fill="#09523E"/>
<path transform="translate(1869,753)" d="m0 0 7 6 3 2-2 4-26 26h37l38-38 7 6 2 4-28 28h37l38-38 7 6 2 4-28 28 61 1v12l-1 1-59 1v2l4 2 23 23-2 4-6 6-4-2-35-35h-37l28 28-6 7-4 2-37-37h-37l28 28-6 7-4 2-44-44 2-4z" fill="#07513D"/>
<path transform="translate(65,753)" d="m0 0 7 6 32 32h37l-28-28 2-4 7-6 38 38h37l-28-28v-2l8-7h3l43 43-2 4-42 42-4-2-6-7 28-28h-37l-37 37-4-2-6-7 28-28h-37l-37 37-4-2-6-6 2-4 23-23 3-2-60-1-1-1v-12l61-1-28-28 2-4z" fill="#07503D"/>
<path transform="translate(722,565)" d="m0 0h1l3 26 5 22 5 20v5h9l13 3v1h-119l6-8 5-7h2l1 6h2l2-4 7-7 9-6h1l1 7 5 2 13 3h7l4-4 10-19 5-17 2-20z" fill="#06503C"/>
<path transform="translate(887,611)" d="m0 0 8 6 10 9 11 9 7 6v1h-142l4-2 99-18h3z" fill="#06503C"/>
</svg>
